<svg id="Layer_1" data-name="Layer 1" xmlns="http://www.w3.org/2000/svg" viewBox="0 0 567 185"><defs><style>.cls-1{fill:#212721;}</style></defs><title>alumilite-logo-Artboard 1dark-grey</title><path class="cls-1" d="M134.67,94.9l-3-35.82h-.27L114.48,94.9Zm33.07,37H138l-1.34-16.1H104.56l-7.65,16.1H64.17l55.55-98.34h32.4Z"/><polygon class="cls-1" points="188.25 126.17 200.52 82.46 212.54 82.46 202.36 118.86 232.16 118.86 230.12 126.17 188.25 126.17"/><path class="cls-1" d="M246.6,82.46h12L252,106.19,250.36,112a6.4,6.4,0,0,0-.16,1.4,5,5,0,0,0,2.53,4.28c1.7,1.12,4.15,1.68,7.38,1.68a18.36,18.36,0,0,0,7.19-1.22,9.63,9.63,0,0,0,4.39-3.64,32,32,0,0,0,3.16-8.2l6.71-23.88h12l-6.67,23.91A39.37,39.37,0,0,1,282,117.91a19.51,19.51,0,0,1-8.35,6.5q-5.6,2.5-14.14,2.5-10.23,0-15.66-3.74t-5.44-9.61a14.51,14.51,0,0,1,.28-2.66q.17-.95,1.4-5.42Z"/><polygon class="cls-1" points="327.1 126.17 315.68 126.17 313.56 89.65 304.25 126.17 293.38 126.17 305.61 82.46 322.79 82.46 324.58 113.08 344.56 82.46 361.93 82.46 349.67 126.17 338.69 126.17 350.23 89.91 327.1 126.17"/><polygon class="cls-1" points="361.06 126.17 373.32 82.46 385.35 82.46 373.13 126.17 361.06 126.17"/><polygon class="cls-1" points="384.63 126.17 396.89 82.46 408.92 82.46 398.73 118.86 428.54 118.86 426.5 126.17 384.63 126.17"/><polygon class="cls-1" points="433.77 126.17 446.03 82.46 458.06 82.46 445.83 126.17 433.77 126.17"/><polygon class="cls-1" points="482.51 126.17 470.44 126.17 480.67 89.77 463.49 89.77 465.53 82.46 511.67 82.46 509.63 89.77 492.69 89.77 482.51 126.17"/><polygon class="cls-1" points="519.22 82.46 507 126.17 552.74 126.17 554.82 118.86 520.74 118.86 524.41 107 554.74 107 556.78 99.69 526.45 99.69 529.25 89.77 560.61 89.77 562.65 82.46 519.22 82.46"/><path class="cls-1" d="M187.68,95.17c.33,46.43-38,83.85-83.24,88.52a111.1,111.1,0,0,0,39.35-16.81,87.32,87.32,0,0,0,30-37.37c6.46-15.71,7.87-37.52,2.54-56C170.62,53.83,158,38.42,151.66,33.32c-10.53-8.51-21.29-14.47-31.6-17.77C82.14,3.39,51.19,17.18,33.6,34.33,11.9,55.5,6,83.48,6.15,82.45,12.33,38.88,49.78,3.21,95.05,3.21c54.55,0,92.22,35.28,92.63,92"/></svg>
